<svg xmlns="http://www.w3.org/2000/svg" width="900" height="422" viewBox="0 0 900 422"><rect width="100%" height="100%" fill="#F6F3EC"/><text x="20" y="32" font-size="21" font-family="sans-serif">Recovery v0.1 sensitivity from baseline</text><line x1="580" y1="48" x2="580" y2="407" stroke="#5F615D"/><text x="20" y="76" font-size="14">overnight_rhr_bpm: 52</text><rect x="444.8" y="62" width="135.2" height="18" fill="#B8533E" rx="4"/><text x="402.8" y="76" font-size="12">-16.9</text><text x="20" y="114" font-size="14">overnight_rhr_bpm: 58</text><rect x="580.0" y="100" width="24.0" height="18" fill="#397A68" rx="4"/><text x="610.0" y="114" font-size="12">+3.0</text><text x="20" y="152" font-size="14">overnight_rhr_bpm: 64</text><rect x="444.8" y="138" width="135.2" height="18" fill="#B8533E" rx="4"/><text x="402.8" y="152" font-size="12">-16.9</text><text x="20" y="190" font-size="14">overnight_rhr_bpm: 70</text><rect x="32.0" y="176" width="548.0" height="18" fill="#B8533E" rx="4"/><text x="-10.0" y="190" font-size="12">-68.5</text><text x="20" y="228" font-size="14">recent_load_ratio: 0.4</text><rect x="510.4" y="214" width="69.6" height="18" fill="#B8533E" rx="4"/><text x="468.4" y="228" font-size="12">-8.7</text><text x="20" y="266" font-size="14">recent_load_ratio: 1.0</text><rect x="580.0" y="252" width="10.4" height="18" fill="#397A68" rx="4"/><text x="596.4" y="266" font-size="12">+1.3</text><text x="20" y="304" font-size="14">recent_load_ratio: 1.6</text><rect x="510.4" y="290" width="69.6" height="18" fill="#B8533E" rx="4"/><text x="468.4" y="304" font-size="12">-8.7</text><text x="20" y="342" font-size="14">recent_load_ratio: 2.2</text><rect x="343.2" y="328" width="236.8" height="18" fill="#B8533E" rx="4"/><text x="301.2" y="342" font-size="12">-29.6</text><text x="20" y="380" font-size="14">overnight_rhr_bpm: None</text><rect x="580.0" y="366" width="8.8" height="18" fill="#397A68" rx="4"/><text x="594.8" y="380" font-size="12">+1.1</text></svg>